<svg style="background-color: white;" xmlns="http://www.w3.org/2000/svg" viewBox="0 0 1857 430" preserveAspectRatio="xMidYMid meet"><polygon stroke="#E6F1F9" stroke-width="1" points="68.786722198603 361.84156508642263 68.786722198603 124.19062905629471 460.85518051699 124.19062905629471 460.85518051699 361.84156508642263" fill="#E6F1F9"/><polyline stroke="#000000" stroke-width="2" points="68.786722198603 361.84156508642263 68.786722198603 124.19062905629471 460.85518051699 124.19062905629471 460.85518051699 361.84156508642263 68.786722198603 361.84156508642263" fill="none"/><polygon stroke="#000000" stroke-width="4" points="176 154 280 154 280 241 176 241" fill="#ffffff"/><rect stroke="#000000" stroke-width="3" x="198.0" y="159" width="60.0" height="58.5" rx="10" fill="#ffffff"/><text stroke-width="1" color="#000000" dominant-baseline="middle" text-anchor="middle" text-decoration="none" font-family="Roboto" font-size="27.51468887944122" font-weight="700" fill="#000000" x="228.0" y="188.25">W1</text><polygon stroke="#E6F1F9" stroke-width="1" points="1547.9983943057657 361.84156508642263 1547.9983943057657 73.72115753900744 1788.4547771636792 73.72115753900744 1788.4547771636792 361.8415650864224" fill="#E6F1F9"/><polyline stroke="#000000" stroke-width="2" points="1547.9983943057657 361.84156508642263 1547.9983943057657 73.72115753900744 1788.4547771636792 73.72115753900744 1788.4547771636792 361.8415650864224 1547.9983943057657 361.84156508642263" fill="none"/><polygon stroke="#E6F1F9" stroke-width="1" points="856.7845267534879 361.8415650864224 856.7845267534879 68.786722198603 1547.998394305766 73.93606537056985 1547.998394305766 361.84156508642263" fill="#E6F1F9"/><polyline stroke="#000000" stroke-width="2" points="856.7845267534879 361.8415650864224 856.7845267534879 68.786722198603 1547.998394305766 73.93606537056985 1547.998394305766 361.84156508642263 856.7845267534879 361.8415650864224" fill="none"/><polygon stroke="#000000" stroke-width="4" points="907 78 1280 78 1280 181 907 181" fill="#ffffff"/><rect stroke="#000000" stroke-width="3" x="1063.0" y="92" width="60.0" height="57.0" rx="10" fill="#ffffff"/><text stroke-width="1" color="#000000" dominant-baseline="middle" text-anchor="middle" text-decoration="none" font-family="Roboto" font-size="27.51468887944122" font-weight="700" fill="#000000" x="1093.0" y="120.5">W3</text><polygon stroke="#000000" stroke-width="4" points="1383 139 1452 139 1452 218 1383 218" fill="#ffffff"/><rect stroke="#000000" stroke-width="3" x="1387.0" y="141" width="60.0" height="57.0" rx="10" fill="#ffffff"/><text stroke-width="1" color="#000000" dominant-baseline="middle" text-anchor="middle" text-decoration="none" font-family="Roboto" font-size="27.51468887944122" font-weight="700" fill="#000000" x="1417.0" y="169.5">W4</text><polygon stroke="#E6F1F9" stroke-width="1" points="460.85518051698955 361.84156508642263 460.85518051698955 69.01193412127373 856.7845267534872 69.01193412127373 856.7845267534874 361.84156508642263" fill="#E6F1F9"/><polyline stroke="#000000" stroke-width="2" points="460.85518051698955 361.84156508642263 460.85518051698955 69.01193412127373 856.7845267534872 69.01193412127373 856.7845267534874 361.84156508642263 460.85518051698955 361.84156508642263" fill="none"/><polygon stroke="#000000" stroke-width="4" points="482 75 836 75 836 205 482 205" fill="#ffffff"/><rect stroke="#000000" stroke-width="3" x="629.0" y="103" width="60.0" height="57.0" rx="10" fill="#ffffff"/><text stroke-width="1" color="#000000" dominant-baseline="middle" text-anchor="middle" text-decoration="none" font-family="Roboto" font-size="27.51468887944122" font-weight="700" fill="#000000" x="659.0" y="131.5">W2</text><rect stroke="#ffffff" stroke-width="3" x="226.0" y="194" width="74.0" height="78.5" rx="10" fill="#5AA0D6"/><text stroke-width="1" color="#ffffff" dominant-baseline="middle" text-anchor="middle" text-decoration="none" font-family="Roboto" font-size="27.51468887944122" font-weight="700" fill="#ffffff" x="263.0" y="233.25">B1</text><rect stroke="#ffffff" stroke-width="3" x="620.0" y="167" width="74.0" height="77.0" rx="10" fill="#5AA0D6"/><text stroke-width="1" color="#ffffff" dominant-baseline="middle" text-anchor="middle" text-decoration="none" font-family="Roboto" font-size="27.51468887944122" font-weight="700" fill="#ffffff" x="657.0" y="205.5">B2</text><rect stroke="#ffffff" stroke-width="3" x="1163.0" y="168" width="74.0" height="77.0" rx="10" fill="#5AA0D6"/><text stroke-width="1" color="#ffffff" dominant-baseline="middle" text-anchor="middle" text-decoration="none" font-family="Roboto" font-size="27.51468887944122" font-weight="700" fill="#ffffff" x="1200.0" y="206.5">B3</text><rect stroke="#ffffff" stroke-width="3" x="1630.0" y="169" width="74.0" height="77.0" rx="10" fill="#5AA0D6"/><text stroke-width="1" color="#ffffff" dominant-baseline="middle" text-anchor="middle" text-decoration="none" font-family="Roboto" font-size="27.51468887944122" font-weight="700" fill="#ffffff" x="1667.0" y="207.5">B4</text></svg>