<svg width="96" height="12" viewBox="0 0 96 12" fill="none" xmlns="http://www.w3.org/2000/svg">
<path d="M3.70292 0.215383H0V11.8004H3.70292C5.25005 11.8004 6.40186 11.3054 7.15832 10.3147C7.91479 9.32463 8.29331 7.88911 8.29331 6.00761C8.29331 4.12611 7.91479 2.70469 7.15832 1.70897C6.40128 0.713245 5.24948 0.215383 3.70292 0.215383ZM5.95493 6.99939C5.95493 7.99117 5.75842 8.74614 5.36599 9.2643C4.97355 9.78246 4.3678 10.0413 3.54873 10.0413H2.201V1.97453H3.54873C4.3678 1.97453 4.97355 2.23333 5.36599 2.75149C5.75842 3.26965 5.95493 4.01842 5.95493 4.99948V6.99939Z" fill="#1A637E"/>
<path d="M16.6933 4.24846C16.3235 3.86111 15.8713 3.56228 15.3369 3.35197C14.8018 3.14166 14.2048 3.03679 13.5451 3.03679C12.8854 3.03679 12.2739 3.14223 11.7447 3.35197C11.2154 3.56228 10.7662 3.86111 10.3969 4.24846C10.0271 4.63581 9.74248 5.10605 9.54366 5.65916C9.34425 6.21285 9.24513 6.83193 9.24513 7.51811C9.24513 8.2043 9.34483 8.82395 9.54366 9.37706C9.74248 9.93018 10.0271 10.4004 10.3969 10.7878C10.7662 11.1751 11.216 11.4739 11.7447 11.6843C12.2733 11.8946 12.8733 11.9994 13.5451 11.9994C14.2169 11.9994 14.8018 11.894 15.3369 11.6843C15.8713 11.4739 16.3235 11.1757 16.6933 10.7878C17.0631 10.4004 17.3472 9.93018 17.5466 9.37706C17.7454 8.82395 17.8451 8.2043 17.8451 7.51811C17.8451 6.83193 17.7454 6.21285 17.5466 5.65916C17.3472 5.10605 17.0631 4.63581 16.6933 4.24846ZM15.5757 8.18174C15.5757 8.90119 15.3937 9.44585 15.0296 9.81685C14.6656 10.1879 14.1706 10.3728 13.5451 10.3728C12.9196 10.3728 12.4246 10.1879 12.0606 9.81685C11.6965 9.44641 11.5145 8.90119 11.5145 8.18174V6.85392C11.5145 6.13504 11.6965 5.58981 12.0606 5.21881C12.4246 4.84838 12.9196 4.66288 13.5451 4.66288C14.1706 4.66288 14.6656 4.84838 15.0296 5.21881C15.3937 5.58981 15.5757 6.13447 15.5757 6.85392V8.18174Z" fill="#1A637E"/>
<path d="M24.4232 9.92454C24.1101 10.1568 23.6922 10.273 23.1688 10.273C22.4975 10.273 21.9886 10.0881 21.6413 9.71705C21.2941 9.34662 21.1208 8.85157 21.1208 8.23136V6.80374C21.1208 6.17281 21.2941 5.67495 21.6413 5.31015C21.988 4.94479 22.4859 4.76267 23.1346 4.76267C23.6348 4.76267 24.0301 4.876 24.3206 5.10266C24.6104 5.32932 24.8353 5.62534 24.9947 5.9907L26.6839 5.09421C26.3877 4.47456 25.9558 3.9767 25.3871 3.60062C24.8179 3.22455 24.0672 3.03623 23.1346 3.03623C22.4633 3.03623 21.8633 3.14166 21.3341 3.35141C20.8055 3.56172 20.3556 3.86055 19.9864 4.2479C19.6166 4.63525 19.3319 5.10548 19.1331 5.6586C18.9337 6.21228 18.8346 6.83137 18.8346 7.51755C18.8346 8.20373 18.9343 8.82338 19.1331 9.3765C19.3319 9.92962 19.6166 10.3998 19.9864 10.7872C20.3562 11.1746 20.8083 11.4734 21.3428 11.6837C21.8773 11.894 22.4801 11.9989 23.1514 11.9989C24.1067 11.9989 24.8834 11.8077 25.4805 11.426C26.0775 11.0443 26.5239 10.5493 26.8201 9.94033L25.1819 8.99422C24.9883 9.38157 24.7356 9.69112 24.4226 9.92341L24.4232 9.92454Z" fill="#1A637E"/>
<path d="M33.3837 8.97561C33.3837 9.20848 33.335 9.40807 33.2388 9.5744C33.1419 9.74073 33.0109 9.88225 32.8463 9.9984C32.6811 10.1151 32.4939 10.2008 32.2835 10.2566C32.073 10.3119 31.8597 10.3395 31.6435 10.3395C30.5398 10.3395 29.9886 9.71818 29.9886 8.47606V3.23582H27.8044V8.76249C27.8044 9.80275 28.0745 10.6023 28.6147 11.161C29.155 11.7198 29.8575 11.9994 30.7218 11.9994C31.4383 11.9994 31.9988 11.8309 32.4029 11.4931C32.8063 11.1559 33.1049 10.7545 33.2985 10.2899H33.3837V11.8004H35.5679V3.23582H33.3837V8.97561Z" fill="#1A637E"/>
<path d="M42.5291 5.10266L41.2834 4.88672C40.6237 4.77508 40.1571 4.60255 39.8841 4.36856C39.611 4.13457 39.4748 3.79401 39.4748 3.34802C39.4748 2.29986 40.1235 1.7755 41.4202 1.7755C42.023 1.7755 42.5465 1.88319 42.9899 2.09914C43.4334 2.31509 43.8148 2.60546 44.133 2.97026L45.4471 1.61086C45.0373 1.11751 44.4942 0.728469 43.8177 0.443734C43.1406 0.159 42.3361 0.0163511 41.4034 0.0163511C40.0951 0.0163511 39.0714 0.311798 38.3317 0.903256C37.5921 1.49471 37.2228 2.34271 37.2228 3.44782C37.2228 4.25466 37.4558 4.95325 37.9225 5.54471C38.3885 6.13617 39.1734 6.52577 40.2771 6.71353L41.5396 6.91256C42.1883 7.01292 42.6485 7.1832 42.9215 7.42283C43.1946 7.66245 43.3308 8.01654 43.3308 8.48452C43.3308 9.05342 43.1488 9.48814 42.7847 9.78922C42.4207 10.0903 41.8973 10.2408 41.215 10.2408C40.6231 10.2408 40.069 10.1219 39.5513 9.88395C39.0337 9.64601 38.5532 9.27839 38.1097 8.77997L36.762 10.1411C37.217 10.7009 37.8054 11.1509 38.5282 11.4903C39.2505 11.8297 40.1235 12 41.1472 12C41.8636 12 42.4978 11.9115 43.0496 11.7344C43.6015 11.5574 44.0652 11.3065 44.4403 10.98C44.8159 10.6541 45.0999 10.2674 45.2935 9.81967C45.4866 9.37199 45.5834 8.87751 45.5834 8.33567C45.5834 7.47357 45.333 6.76653 44.8327 6.21397C44.3319 5.66142 43.5644 5.29098 42.5291 5.10323V5.10266Z" fill="#1A637E"/>
<path d="M55.3096 3.23582H52.7672L50.6004 5.36033L49.3205 6.72142H49.2179V0.215383H47.0337V11.8004H49.2179V8.7794L50.259 7.81694L53.0744 11.8004H55.6852L51.8119 6.60527L55.3096 3.23582Z" fill="#1A637E"/>
<path d="M62.6459 4.21914C62.2877 3.84194 61.8523 3.55044 61.3405 3.34521C60.8286 3.13997 60.2542 3.03735 59.6171 3.03735C58.9801 3.03735 58.3853 3.14279 57.8683 3.35254C57.3506 3.56284 56.9095 3.86167 56.546 4.24903C56.182 4.63638 55.9003 5.10661 55.7015 5.65973C55.5021 6.21341 55.4029 6.83813 55.4029 7.53503C55.4029 8.23192 55.4997 8.83804 55.6928 9.38552C55.8858 9.933 56.1675 10.401 56.5374 10.7878C56.9072 11.1751 57.3651 11.4739 57.9112 11.6843C58.4572 11.8946 59.0827 11.9994 59.7881 11.9994C60.7208 11.9994 61.4918 11.8399 62.1004 11.5207C62.7091 11.2016 63.1728 10.8171 63.4911 10.3655L62.2453 9.16112C61.9833 9.5152 61.6564 9.79993 61.264 10.0159C60.8715 10.2318 60.402 10.3395 59.856 10.3395C59.1395 10.3395 58.5818 10.1484 58.1836 9.76667C57.7854 9.38496 57.5866 8.88427 57.5866 8.26462V8.04868H63.7635V7.34953C63.7635 6.70563 63.6667 6.11756 63.4737 5.58474C63.2801 5.05192 63.0041 4.59691 62.6459 4.21914ZM61.5793 6.78795H57.5866V6.67124C57.5866 6.04652 57.7744 5.54527 58.1494 5.16581C58.525 4.78692 59.0195 4.59691 59.6339 4.59691C60.2484 4.59691 60.7115 4.78128 61.0588 5.1489C61.4054 5.51708 61.5793 6.01325 61.5793 6.63741V6.78795Z" fill="#1A637E"/>
<path d="M68.4774 0.215383H66.4468V2.29028C66.4468 2.64436 66.3726 2.89076 66.2248 3.0289C66.077 3.1676 65.8265 3.23639 65.4741 3.23639H64.313V4.8963H66.2932V9.47122C66.2932 10.1591 66.492 10.719 66.8902 11.152C67.2885 11.5845 67.9081 11.801 68.7504 11.801H71.4812V10.1411H68.4774V4.8963H71.4812V3.23639H68.4774V0.215383Z" fill="#1A637E"/>
<path d="M77.8141 9.92454C77.5011 10.1568 77.0831 10.273 76.5597 10.273C75.8884 10.273 75.3795 10.0881 75.0322 9.71705C74.685 9.34662 74.5117 8.85157 74.5117 8.23136V6.80374C74.5117 6.17281 74.685 5.67495 75.0322 5.31015C75.3789 4.94479 75.8768 4.76267 76.5255 4.76267C77.0257 4.76267 77.4211 4.876 77.7115 5.10266C78.0013 5.32932 78.2262 5.62534 78.3856 5.9907L80.0748 5.09421C79.7786 4.47456 79.3467 3.9767 78.7781 3.60062C78.2088 3.22455 77.4582 3.03623 76.5255 3.03623C75.8542 3.03623 75.2543 3.14166 74.725 3.35141C74.1964 3.56172 73.7465 3.86055 73.3773 4.2479C73.0075 4.63525 72.7228 5.10548 72.524 5.6586C72.3246 6.21228 72.2255 6.83137 72.2255 7.51755C72.2255 8.20373 72.3252 8.82338 72.524 9.3765C72.7228 9.92962 73.0075 10.3998 73.3773 10.7872C73.7471 11.1746 74.1993 11.4734 74.7337 11.6837C75.2682 11.894 75.871 11.9989 76.5423 11.9989C77.4976 11.9989 78.2743 11.8077 78.8714 11.426C79.4685 11.0443 79.9148 10.5493 80.211 9.94033L78.5729 8.99422C78.3792 9.38157 78.1265 9.69112 77.8135 9.92341L77.8141 9.92454Z" fill="#1A637E"/>
<path d="M86.1839 3.03679C85.4674 3.03679 84.9069 3.20537 84.5029 3.54311C84.0988 3.88084 83.8003 4.28173 83.6073 4.74632H83.5221V0.215383H81.3379V11.8004H83.5221V6.06061C83.5221 5.82775 83.5702 5.62815 83.667 5.46182C83.7638 5.29549 83.8942 5.15397 84.0594 5.03782C84.224 4.92168 84.409 4.83541 84.6142 4.78015C84.8188 4.7249 85.035 4.69671 85.2628 4.69671C86.3659 4.69671 86.9178 5.31805 86.9178 6.56017V11.8004H89.102V6.27374C89.102 5.23404 88.8318 4.43453 88.2916 3.87521C87.7513 3.31645 87.0488 3.03679 86.1845 3.03679H86.1839Z" fill="#1A637E"/>
<path d="M95.7612 1.83358C95.6018 1.46314 95.3798 1.14232 95.0957 0.871118C94.8111 0.599916 94.4813 0.387351 94.1062 0.232298C93.7306 0.0772448 93.3214 0 92.8779 0C92.4345 0 92.0246 0.0778086 91.6496 0.232298C91.274 0.387351 90.9441 0.600479 90.6601 0.871118C90.3755 1.14232 90.154 1.46314 89.9946 1.83358C89.8352 2.20458 89.7558 2.60546 89.7558 3.03679C89.7558 3.46812 89.8352 3.86957 89.9946 4.24C90.154 4.611 90.3755 4.93182 90.6601 5.20246C90.9441 5.47366 91.2745 5.68679 91.6496 5.84128C92.0252 5.99634 92.4345 6.07358 92.8779 6.07358C93.3214 6.07358 93.7312 5.99634 94.1062 5.84128C94.4818 5.68623 94.8117 5.47366 95.0957 5.20246C95.3798 4.93126 95.6018 4.61044 95.7612 4.24C95.9206 3.86957 96 3.46812 96 3.03679C96 2.60546 95.92 2.20458 95.7612 1.83358ZM94.0123 4.19039C93.7335 4.49486 93.3556 4.64653 92.8773 4.64653C92.3991 4.64653 92.0212 4.49429 91.7423 4.19039C91.4635 3.88592 91.3244 3.50139 91.3244 3.03679C91.3244 2.57219 91.4635 2.18766 91.7423 1.88319C92.0212 1.57872 92.3991 1.42649 92.8773 1.42649C93.3556 1.42649 93.7329 1.57872 94.0123 1.88319C94.2911 2.18766 94.4303 2.57219 94.4303 3.03679C94.4303 3.50139 94.2906 3.88592 94.0123 4.19039Z" fill="#1A637E"/>
</svg>
